<?xml version="1.0" encoding="UTF-8"?>
<!-- Generator: Adobe Illustrator 25.1.0, SVG Export Plug-In . SVG Version: 6.00 Build 0)  -->
<svg xmlns="http://www.w3.org/2000/svg" xmlns:xlink="http://www.w3.org/1999/xlink" version="1.1" id="Lag_1" x="0px" y="0px" viewBox="0 0 200 32.7" style="enable-background:new 0 0 200 32.7;" xml:space="preserve">
<style type="text/css">
	.st0{clip-path:url(#SVGID_2_);}
	.st1{fill:#79F293;}
</style>
<g>
	<defs>
		<rect id="SVGID_1_" width="200" height="32.7"></rect>
	</defs>
	<clipPath id="SVGID_2_">
		<use xlink:href="#SVGID_1_" style="overflow:visible;"></use>
	</clipPath>
	<g class="st0">
		<path d="M50.8,6.5l-1.4,11.9c0,0.1,0,0.1-0.1,0.2c-0.1,0-0.1,0.1-0.2,0.1h-12c0,0-0.1,0-0.1,0c0,0-0.1,0-0.1-0.1    c0,0,0-0.1-0.1-0.1c0,0,0-0.1,0-0.1l0.8-6.9c0-0.1,0-0.1,0.1-0.2c0.1,0,0.1-0.1,0.2-0.1h9c0.1,0,0.1,0,0.2-0.1    c0.1,0,0.1-0.1,0.1-0.2l0.2-1.5c0,0,0-0.1,0-0.1c0,0,0-0.1-0.1-0.1c0,0-0.1-0.1-0.1-0.1c0,0-0.1,0-0.1,0h-8.9c0,0-0.1,0-0.1,0    c0,0-0.1,0-0.1-0.1c0,0,0-0.1-0.1-0.1c0,0,0-0.1,0-0.1l0.3-2.4c0-0.1,0-0.1,0.1-0.2c0.1,0,0.1-0.1,0.2-0.1h12c0,0,0.1,0,0.1,0    c0,0,0.1,0,0.1,0.1c0,0,0,0.1,0.1,0.1C50.8,6.4,50.8,6.5,50.8,6.5z M46.6,15.6l0.2-1.6c0,0,0-0.1,0-0.1c0,0,0-0.1-0.1-0.1    c0,0-0.1-0.1-0.1-0.1c0,0-0.1,0-0.1,0h-6c-0.1,0-0.1,0-0.2,0.1c-0.1,0-0.1,0.1-0.1,0.2l-0.2,1.6c0,0,0,0.1,0,0.1    c0,0,0,0.1,0.1,0.1c0,0,0.1,0.1,0.1,0.1c0,0,0.1,0,0.1,0h6c0.1,0,0.1,0,0.2-0.1C46.6,15.7,46.6,15.7,46.6,15.6z"></path>
		<path d="M148.6,6.5l-1.4,11.9c0,0.1,0,0.1-0.1,0.2c-0.1,0-0.1,0.1-0.2,0.1h-12c0,0-0.1,0-0.1,0s-0.1,0-0.1-0.1c0,0,0-0.1-0.1-0.1    c0,0,0-0.1,0-0.1l0.8-6.9c0-0.1,0-0.1,0.1-0.2c0.1,0,0.1-0.1,0.2-0.1h9c0.1,0,0.1,0,0.2-0.1c0.1,0,0.1-0.1,0.1-0.2l0.2-1.5    c0,0,0-0.1,0-0.1c0,0,0-0.1-0.1-0.1c0,0-0.1-0.1-0.1-0.1c0,0-0.1,0-0.1,0H136c0,0-0.1,0-0.1,0c0,0-0.1,0-0.1-0.1    c0,0,0-0.1-0.1-0.1c0,0,0-0.1,0-0.1l0.3-2.4c0-0.1,0-0.1,0.1-0.2c0.1,0,0.1-0.1,0.2-0.1h12c0,0,0.1,0,0.1,0c0,0,0.1,0,0.1,0.1    c0,0,0,0.1,0.1,0.1C148.6,6.4,148.6,6.5,148.6,6.5z M144.4,15.6l0.2-1.6c0,0,0-0.1,0-0.1c0,0,0-0.1-0.1-0.1c0,0-0.1-0.1-0.1-0.1    c0,0-0.1,0-0.1,0h-6c-0.1,0-0.1,0-0.2,0.1c-0.1,0-0.1,0.1-0.1,0.2l-0.2,1.6c0,0,0,0.1,0,0.1c0,0,0,0.1,0.1,0.1    c0,0,0.1,0.1,0.1,0.1c0,0,0.1,0,0.1,0h6c0.1,0,0.1,0,0.2-0.1C144.4,15.7,144.4,15.7,144.4,15.6z"></path>
		<path d="M57,9.5l-0.7,5.6c0,0,0,0.1,0,0.1c0,0,0,0.1,0.1,0.1c0,0,0.1,0.1,0.1,0.1c0,0,0.1,0,0.1,0h8.9c0,0,0.1,0,0.1,0    c0,0,0.1,0,0.1,0.1c0,0,0,0.1,0.1,0.1c0,0,0,0.1,0,0.1l-0.3,2.6c0,0.1,0,0.1-0.1,0.2c-0.1,0-0.1,0.1-0.2,0.1h-12c0,0-0.1,0-0.1,0    c0,0-0.1,0-0.1-0.1c0,0,0-0.1-0.1-0.1c0,0,0-0.1,0-0.1l1.4-12c0-0.1,0-0.1,0.1-0.2c0.1,0,0.1-0.1,0.2-0.1h12c0,0,0.1,0,0.1,0    c0,0,0.1,0,0.1,0.1c0,0,0,0.1,0.1,0.1c0,0,0,0.1,0,0.1L66.6,9c0,0.1,0,0.1-0.1,0.2c-0.1,0-0.1,0.1-0.2,0.1h-9    c-0.1,0-0.1,0-0.2,0.1C57,9.4,57,9.4,57,9.5z"></path>
		<path d="M102.4,18.7h-2.5c0,0-0.1,0-0.1,0c0,0-0.1,0-0.1-0.1c0,0,0-0.1-0.1-0.1c0,0,0-0.1,0-0.1l2-15.9c0-0.1,0-0.1,0.1-0.2    c0.1,0,0.1-0.1,0.2-0.1h2.5c0,0,0.1,0,0.1,0c0,0,0.1,0,0.1,0.1c0,0,0,0.1,0.1,0.1c0,0,0,0.1,0,0.1l-2,15.9c0,0.1,0,0.1-0.1,0.2    C102.5,18.6,102.4,18.7,102.4,18.7z"></path>
		<path d="M133,6.5L132.6,9c0,0.1,0,0.1-0.1,0.2c-0.1,0-0.1,0.1-0.2,0.1h-6.1c-0.1,0-0.1,0-0.2,0.1c-0.1,0-0.1,0.1-0.1,0.2l-1,8.9    c0,0.1,0,0.1-0.1,0.2c-0.1,0-0.1,0.1-0.2,0.1H122c0,0-0.1,0-0.1,0c0,0-0.1,0-0.1-0.1c0,0,0-0.1-0.1-0.1c0,0,0-0.1,0-0.1l1.5-11.9    c0-0.1,0-0.1,0.1-0.2c0.1,0,0.1-0.1,0.2-0.1h9.3c0,0,0.1,0,0.1,0c0,0,0.1,0,0.1,0.1c0,0,0,0.1,0.1,0.1C133,6.4,133,6.4,133,6.5z"></path>
		<path d="M155.3,9.5l-0.7,5.7c0,0,0,0.1,0,0.1c0,0,0,0.1,0.1,0.1c0,0,0.1,0.1,0.1,0.1c0,0,0.1,0,0.1,0h5.6c0,0,0.1,0,0.1,0    c0,0,0.1,0,0.1,0.1c0,0,0,0.1,0.1,0.1c0,0,0,0.1,0,0.1l-0.3,2.5c0,0.1,0,0.1-0.1,0.2c-0.1,0-0.1,0.1-0.2,0.1H151c0,0-0.1,0-0.1,0    s-0.1,0-0.1-0.1c0,0,0-0.1-0.1-0.1c0,0,0-0.1,0-0.1l1.9-16c0-0.1,0-0.1,0.1-0.2c0.1,0,0.1-0.1,0.2-0.1h3c0,0,0.1,0,0.1,0    c0,0,0.1,0,0.1,0.1c0,0,0,0.1,0.1,0.1c0,0,0,0.1,0,0.1l-0.4,3.4c0,0,0,0.1,0,0.1c0,0,0,0.1,0.1,0.1c0,0,0.1,0.1,0.1,0.1    s0.1,0,0.1,0h4.7c0,0,0.1,0,0.1,0c0,0,0.1,0,0.1,0.1c0,0,0,0.1,0.1,0.1c0,0,0,0.1,0,0.1L160.7,9c0,0.1,0,0.1-0.1,0.2    c-0.1,0-0.1,0.1-0.2,0.1h-4.9c-0.1,0-0.1,0-0.2,0.1C155.3,9.4,155.3,9.5,155.3,9.5z"></path>
		<path d="M165,6.3h2.5c0,0,0.1,0,0.1,0c0,0,0.1,0,0.1,0.1c0,0,0,0.1,0.1,0.1c0,0,0,0.1,0,0.1l-1.4,11.7c0,0.1,0,0.1-0.1,0.2    c-0.1,0-0.1,0.1-0.2,0.1h-2.5c0,0-0.1,0-0.1,0c0,0-0.1,0-0.1-0.1c0,0,0-0.1-0.1-0.1c0,0,0-0.1,0-0.1l1.4-11.7c0-0.1,0-0.1,0.1-0.2    S165,6.3,165,6.3z M168.3,2.5l-0.2,1.8c0,0.1,0,0.1-0.1,0.2c-0.1,0-0.1,0.1-0.2,0.1h-2.5c0,0-0.1,0-0.1,0c0,0-0.1,0-0.1-0.1    c0,0,0-0.1-0.1-0.1c0,0,0-0.1,0-0.1l0.2-1.8c0-0.1,0-0.1,0.1-0.2c0.1,0,0.1-0.1,0.2-0.1h2.5c0,0,0.1,0,0.1,0c0,0,0.1,0,0.1,0.1    s0.1,0.1,0.1,0.1C168.4,2.4,168.4,2.4,168.3,2.5L168.3,2.5z"></path>
		<path d="M183.9,6.5l-1.4,11.9c0,0.1,0,0.1-0.1,0.2c-0.1,0-0.1,0.1-0.2,0.1h-11.9c0,0-0.1,0-0.1,0c0,0-0.1,0-0.1-0.1    c0,0,0-0.1-0.1-0.1c0,0,0-0.1,0-0.1l1.4-11.9c0-0.1,0-0.1,0.1-0.2c0.1,0,0.1-0.1,0.2-0.1h11.9c0,0,0.1,0,0.1,0c0,0,0.1,0,0.1,0.1    c0,0,0,0.1,0.1,0.1C183.9,6.4,183.9,6.4,183.9,6.5z M180.4,9.3h-6.2c-0.1,0-0.1,0-0.2,0.1c-0.1,0-0.1,0.1-0.1,0.2l-0.6,5.7    c0,0,0,0.1,0,0.1c0,0,0,0.1,0.1,0.1c0,0,0.1,0.1,0.1,0.1c0,0,0.1,0,0.1,0h6.2c0.1,0,0.1,0,0.2-0.1c0.1,0,0.1-0.1,0.1-0.2l0.7-5.7    c0,0,0-0.1,0-0.1c0,0,0-0.1-0.1-0.1c0,0-0.1-0.1-0.1-0.1C180.5,9.3,180.4,9.3,180.4,9.3z"></path>
		<path d="M200,6.5l-1.4,11.9c0,0.1,0,0.1-0.1,0.2c-0.1,0-0.1,0.1-0.2,0.1h-2.5c0,0-0.1,0-0.1,0c0,0-0.1,0-0.1-0.1    c0,0,0-0.1-0.1-0.1c0,0,0-0.1,0-0.1l1-8.7c0,0,0-0.1,0-0.1c0,0,0-0.1-0.1-0.1c0,0-0.1-0.1-0.1-0.1c0,0-0.1,0-0.1,0h-5.9    c-0.1,0-0.1,0-0.2,0.1c-0.1,0-0.1,0.1-0.1,0.2l-1,8.9c0,0.1,0,0.1-0.1,0.2c-0.1,0-0.1,0.1-0.2,0.1h-2.5c0,0-0.1,0-0.1,0    c0,0-0.1,0-0.1-0.1c0,0,0-0.1-0.1-0.1c0,0,0-0.1,0-0.1l1.5-11.9c0-0.1,0-0.1,0.1-0.2c0.1,0,0.1-0.1,0.2-0.1h12c0,0,0.1,0,0.1,0    c0,0,0.1,0,0.1,0.1c0,0,0,0.1,0.1,0.1C200,6.4,200,6.4,200,6.5z"></path>
		<path d="M72.5,9.5l-0.7,5.6c0,0,0,0.1,0,0.1c0,0,0,0.1,0.1,0.1c0,0,0.1,0.1,0.1,0.1c0,0,0.1,0,0.1,0H81c0,0,0.1,0,0.1,0    c0,0,0.1,0,0.1,0.1c0,0,0,0.1,0.1,0.1c0,0,0,0.1,0,0.1L81,18.4c0,0.1,0,0.1-0.1,0.2c-0.1,0-0.1,0.1-0.2,0.1h-12c0,0-0.1,0-0.1,0    c0,0-0.1,0-0.1-0.1c0,0,0-0.1-0.1-0.1c0,0,0-0.1,0-0.1l1.4-12c0-0.1,0-0.1,0.1-0.2c0.1,0,0.1-0.1,0.2-0.1h12c0,0,0.1,0,0.1,0    c0,0,0.1,0,0.1,0.1c0,0,0,0.1,0.1,0.1c0,0,0,0.1,0,0.1L82.1,9c0,0.1,0,0.1-0.1,0.2c-0.1,0-0.1,0.1-0.2,0.1h-9    c-0.1,0-0.1,0-0.2,0.1C72.6,9.4,72.5,9.5,72.5,9.5z"></path>
		<path d="M19.7,18.1H5.2c0,0-0.1,0-0.1,0c0,0-0.1,0-0.1-0.1c0,0,0-0.1-0.1-0.1c0,0,0-0.1,0-0.1l0.3-3.6c0-0.1,0-0.1,0.1-0.2    C5.4,14,5.5,14,5.5,14h14.6c0,0,0.1,0,0.1,0c0,0,0.1,0,0.1,0.1c0,0,0,0.1,0.1,0.1c0,0,0,0.1,0,0.1L20,17.9c0,0.1,0,0.1-0.1,0.2    C19.8,18.1,19.7,18.1,19.7,18.1z M1.5,9.5L0,22.6c0,0,0,0.1,0,0.1c0,0,0,0.1,0.1,0.1c0,0,0.1,0.1,0.1,0.1c0,0,0.1,0,0.1,0h23    c0.1,0,0.1,0,0.2-0.1c0.1,0,0.1-0.1,0.1-0.2l1.7-13.1c0,0,0-0.1,0-0.1c0,0,0-0.1-0.1-0.1c0,0-0.1-0.1-0.1-0.1c0,0-0.1,0-0.1,0H1.8    c-0.1,0-0.1,0-0.2,0.1C1.6,9.3,1.6,9.4,1.5,9.5L1.5,9.5z"></path>
		<path d="M8.1,0.3L7.6,4.4c0,0,0,0.1,0,0.1c0,0,0,0.1,0.1,0.1c0,0,0.1,0.1,0.1,0.1c0,0,0.1,0,0.1,0l17.7,0.1c0.1,0,0.1,0,0.2-0.1    c0.1,0,0.1-0.1,0.1-0.2l0.5-4.3c0,0,0-0.1,0-0.1c0,0,0-0.1-0.1-0.1c0,0-0.1-0.1-0.1-0.1c0,0-0.1,0-0.1,0H8.4C8.3,0,8.2,0,8.2,0.1    S8.1,0.2,8.1,0.3z"></path>
		<path d="M84,18.3l1.4-11.9c0-0.1,0-0.1,0.1-0.2c0.1,0,0.1-0.1,0.2-0.1h12c0,0,0.1,0,0.1,0c0,0,0.1,0,0.1,0.1c0,0,0,0.1,0.1,0.1    c0,0,0,0.1,0,0.1l-0.8,6.9c0,0.1,0,0.1-0.1,0.2c-0.1,0-0.1,0.1-0.2,0.1h-9c-0.1,0-0.1,0-0.2,0.1c-0.1,0-0.1,0.1-0.1,0.2l-0.2,1.5    c0,0,0,0.1,0,0.1c0,0,0,0.1,0.1,0.1c0,0,0.1,0.1,0.1,0.1c0,0,0.1,0,0.1,0h8.8c0,0,0.1,0,0.1,0c0,0,0.1,0,0.1,0.1    c0,0,0,0.1,0.1,0.1s0,0.1,0,0.1l-0.3,2.4c0,0.1,0,0.1-0.1,0.2c-0.1,0-0.1,0.1-0.2,0.1h-12c0,0-0.1,0-0.1,0c0,0-0.1,0-0.1-0.1    c0,0,0-0.1-0.1-0.1C84,18.4,84,18.4,84,18.3z M88.2,9.2L88,10.8c0,0,0,0.1,0,0.1c0,0,0,0.1,0.1,0.1c0,0,0.1,0.1,0.1,0.1    c0,0,0.1,0,0.1,0h6c0.1,0,0.1,0,0.2-0.1c0.1,0,0.1-0.1,0.1-0.2l0.2-1.6c0,0,0-0.1,0-0.1c0,0,0-0.1-0.1-0.1c0,0-0.1-0.1-0.1-0.1    c0,0-0.1,0-0.1,0h-6c-0.1,0-0.1,0-0.2,0.1C88.2,9.1,88.2,9.2,88.2,9.2z"></path>
		<path d="M106.1,18.3l1.4-11.9c0-0.1,0-0.1,0.1-0.2c0.1,0,0.1-0.1,0.2-0.1h12c0,0,0.1,0,0.1,0c0,0,0.1,0,0.1,0.1c0,0,0,0.1,0.1,0.1    c0,0,0,0.1,0,0.1l-0.8,6.9c0,0.1,0,0.1-0.1,0.2c-0.1,0-0.1,0.1-0.2,0.1h-9c-0.1,0-0.1,0-0.2,0.1c-0.1,0-0.1,0.1-0.1,0.2l-0.2,1.5    c0,0,0,0.1,0,0.1c0,0,0,0.1,0.1,0.1s0.1,0.1,0.1,0.1c0,0,0.1,0,0.1,0h8.9c0,0,0.1,0,0.1,0c0,0,0.1,0,0.1,0.1c0,0,0,0.1,0.1,0.1    c0,0,0,0.1,0,0.1l-0.3,2.4c0,0.1,0,0.1-0.1,0.2c-0.1,0-0.1,0.1-0.2,0.1h-12c0,0-0.1,0-0.1,0c0,0-0.1,0-0.1-0.1c0,0,0-0.1-0.1-0.1    C106.1,18.4,106.1,18.4,106.1,18.3z M110.3,9.2l-0.2,1.6c0,0,0,0.1,0,0.1c0,0,0,0.1,0.1,0.1c0,0,0.1,0.1,0.1,0.1c0,0,0.1,0,0.1,0    h6c0.1,0,0.1,0,0.2-0.1c0.1,0,0.1-0.1,0.1-0.2l0.2-1.6c0,0,0-0.1,0-0.1c0,0,0-0.1-0.1-0.1c0,0-0.1-0.1-0.1-0.1c0,0-0.1,0-0.1,0h-6    c-0.1,0-0.1,0-0.2,0.1C110.3,9.1,110.3,9.2,110.3,9.2z"></path>
		<path class="st1" d="M135.3,32.5l-0.3-0.8c0,0,0,0,0,0h-2.1c0,0,0,0,0,0c0,0,0,0,0,0l-0.2,0.8c0,0,0,0,0,0.1c0,0,0,0-0.1,0h-1.1    c0,0,0,0,0,0c0,0,0,0,0,0c0,0,0,0,0,0c0,0,0,0,0,0l1.8-5.6c0,0,0,0,0-0.1c0,0,0,0,0.1,0h1.3c0,0,0,0,0.1,0c0,0,0,0,0,0.1l1.8,5.6    c0,0,0,0,0,0c0,0,0,0.1-0.1,0.1L135.3,32.5C135.3,32.6,135.3,32.6,135.3,32.5C135.3,32.6,135.3,32.5,135.3,32.5z M133.2,30.8h1.5    c0,0,0,0,0,0l-0.8-2.5c0,0,0,0,0,0c0,0,0,0,0,0L133.2,30.8C133.2,30.7,133.2,30.8,133.2,30.8L133.2,30.8z"></path>
		<path class="st1" d="M140.8,32.5l-1.5-5.7v0c0,0,0-0.1,0.1-0.1h1c0,0,0,0,0.1,0c0,0,0,0,0,0.1l0.8,3.4c0,0,0,0,0,0c0,0,0,0,0,0    l0.8-3.4c0,0,0,0,0-0.1c0,0,0,0,0.1,0h1c0,0,0.1,0,0.1,0c0,0,0,0,0,0.1l0.8,3.4c0,0,0,0,0,0c0,0,0,0,0,0c0,0,0,0,0,0l0.8-3.4    c0,0,0,0,0-0.1c0,0,0,0,0.1,0h1c0.1,0,0.1,0,0.1,0.1l-1.4,5.7c0,0,0,0,0,0.1c0,0,0,0-0.1,0h-1c0,0-0.1,0-0.1,0c0,0,0,0,0-0.1    l-0.9-3.6c0,0,0,0,0,0c0,0,0,0,0,0l-0.8,3.6c0,0,0,0,0,0c0,0,0,0,0,0c0,0,0,0,0,0c0,0,0,0,0,0h-0.9    C140.9,32.6,140.8,32.6,140.8,32.5C140.8,32.6,140.8,32.5,140.8,32.5z"></path>
		<path class="st1" d="M150.6,27c0.3,0.1,0.5,0.4,0.6,0.6c0.2,0.3,0.2,0.6,0.2,0.9c0,0.3-0.1,0.6-0.2,0.9c-0.2,0.3-0.4,0.5-0.7,0.6    c-0.3,0.2-0.6,0.2-1,0.2h-1.2c0,0,0,0,0,0c0,0,0,0,0,0c0,0,0,0,0,0c0,0,0,0,0,0v2.1c0,0,0,0,0,0c0,0,0,0,0,0c0,0,0,0,0,0    c0,0,0,0,0,0h-1c0,0,0,0,0,0c0,0,0,0,0,0c0,0,0,0,0,0c0,0,0,0,0,0v-5.7c0,0,0,0,0,0c0,0,0,0,0,0c0,0,0,0,0,0c0,0,0,0,0,0h2.4    C149.9,26.7,150.3,26.8,150.6,27z M150.1,29.2c0.1-0.1,0.1-0.2,0.2-0.3c0-0.1,0.1-0.2,0.1-0.3c0-0.1,0-0.2-0.1-0.3    c0-0.1-0.1-0.2-0.2-0.3c-0.1-0.1-0.2-0.1-0.3-0.2c-0.1,0-0.2-0.1-0.3,0h-1.1c0,0,0,0,0,0v1.5c0,0,0,0,0,0h1.1    C149.7,29.4,149.9,29.3,150.1,29.2z"></path>
		<path class="st1" d="M155.9,27c0.3,0.1,0.5,0.4,0.6,0.6c0.2,0.3,0.2,0.6,0.2,0.9c0,0.3-0.1,0.6-0.2,0.9c-0.2,0.3-0.4,0.5-0.7,0.6    c-0.3,0.2-0.6,0.2-1,0.2h-1.2c0,0,0,0,0,0c0,0,0,0,0,0c0,0,0,0,0,0c0,0,0,0,0,0v2.1c0,0,0,0.1,0,0.1c0,0,0,0-0.1,0h-1c0,0,0,0,0,0    c0,0,0,0,0,0c0,0,0,0,0,0c0,0,0,0,0,0v-5.7c0,0,0-0.1,0-0.1c0,0,0,0,0.1,0h2.4C155.3,26.7,155.6,26.8,155.9,27z M155.4,29.2    c0.1-0.1,0.1-0.2,0.2-0.3c0-0.1,0.1-0.2,0.1-0.3c0-0.1,0-0.2-0.1-0.3c0-0.1-0.1-0.2-0.2-0.3c-0.2-0.2-0.4-0.2-0.6-0.2h-1.1    c0,0,0,0,0,0v1.5c0,0,0,0,0,0h1.1C155,29.4,155.2,29.3,155.4,29.2z"></path>
		<path class="st1" d="M160.8,32.4c-0.3-0.2-0.6-0.4-0.8-0.7c-0.2-0.3-0.3-0.7-0.3-1.1v-1.9c0-0.4,0.1-0.7,0.3-1.1    c0.2-0.3,0.4-0.6,0.8-0.7c0.4-0.2,0.7-0.3,1.1-0.3c0.4,0,0.8,0.1,1.1,0.2c0.3,0.1,0.6,0.4,0.8,0.7c0.2,0.3,0.3,0.7,0.3,1    c0,0,0,0.1-0.1,0.1l-1,0.1c-0.1,0-0.1,0-0.1-0.1c0-0.1,0-0.3-0.1-0.4c0-0.1-0.1-0.2-0.2-0.3c-0.1-0.1-0.2-0.2-0.3-0.2    c-0.1,0-0.3-0.1-0.4-0.1c-0.1,0-0.3,0-0.4,0.1c-0.1,0-0.2,0.1-0.3,0.2c-0.1,0.1-0.2,0.2-0.2,0.3c0,0.1-0.1,0.3-0.1,0.4v2    c0,0.1,0,0.3,0.1,0.4c0,0.1,0.1,0.2,0.2,0.3c0.1,0.1,0.2,0.2,0.3,0.2c0.1,0,0.3,0.1,0.4,0.1c0.1,0,0.3,0,0.4-0.1    c0.1,0,0.2-0.1,0.3-0.2c0.1-0.1,0.2-0.2,0.2-0.3c0-0.1,0.1-0.2,0.1-0.4c0-0.1,0-0.1,0.1-0.1l1,0c0,0,0.1,0,0.1,0c0,0,0,0,0,0.1    c0,0.4-0.1,0.7-0.3,1c-0.2,0.3-0.4,0.5-0.8,0.7c-0.4,0.2-0.7,0.3-1.1,0.2C161.5,32.7,161.1,32.6,160.8,32.4z"></path>
		<path class="st1" d="M166.2,32.4c-0.3-0.2-0.6-0.4-0.8-0.7c-0.2-0.3-0.3-0.7-0.3-1.1v-1.8c0-0.4,0.1-0.8,0.3-1.1    c0.2-0.3,0.4-0.6,0.8-0.7c0.4-0.2,0.7-0.3,1.1-0.3c0.4,0,0.8,0.1,1.2,0.3c0.3,0.2,0.6,0.4,0.8,0.7c0.2,0.3,0.3,0.7,0.3,1.1v1.8    c0,0.4-0.1,0.8-0.3,1.1c-0.2,0.3-0.4,0.6-0.8,0.7c-0.4,0.2-0.8,0.3-1.2,0.3C166.9,32.7,166.6,32.6,166.2,32.4z M168.1,31.4    c0.2-0.2,0.3-0.5,0.3-0.8v-1.8c0-0.3-0.1-0.6-0.3-0.8c-0.1-0.1-0.2-0.2-0.3-0.2c-0.1-0.1-0.3-0.1-0.4-0.1c-0.1,0-0.3,0-0.4,0.1    c-0.1,0.1-0.2,0.1-0.3,0.2c-0.2,0.2-0.3,0.5-0.3,0.8v1.8c0,0.1,0,0.3,0.1,0.4c0,0.1,0.1,0.3,0.2,0.4c0.1,0.1,0.2,0.2,0.3,0.2    c0.1,0.1,0.3,0.1,0.4,0.1c0.1,0,0.3,0,0.4-0.1C167.9,31.6,168,31.5,168.1,31.4L168.1,31.4z"></path>
		<path class="st1" d="M174.7,26.8h1c0,0,0,0,0,0c0,0,0,0,0,0c0,0,0,0,0,0c0,0,0,0,0,0v5.6c0,0,0,0,0,0s0,0,0,0c0,0,0,0,0,0    c0,0,0,0,0,0h-1c0,0,0,0,0,0c0,0,0,0,0,0c0,0,0,0,0,0c0,0,0,0,0,0v-3.7c0,0,0,0,0,0c0,0,0,0,0,0c0,0,0,0,0,0l-0.9,1.4c0,0,0,0,0,0    c0,0,0,0-0.1,0H173c0,0,0,0-0.1,0c0,0,0,0,0,0l-0.9-1.4c0,0,0,0,0,0c0,0,0,0,0,0v3.7c0,0,0,0.1,0,0.1c0,0,0,0-0.1,0h-1    c0,0,0,0,0,0c0,0,0,0,0,0c0,0,0,0,0,0c0,0,0,0,0,0v-5.7c0,0,0-0.1,0-0.1c0,0,0,0,0.1,0h1c0,0,0,0,0.1,0c0,0,0,0,0,0l1.2,1.9    c0,0,0,0,0,0L174.7,26.8C174.6,26.8,174.6,26.8,174.7,26.8C174.6,26.8,174.6,26.8,174.7,26.8z"></path>
		<path class="st1" d="M180.5,27c0.3,0.1,0.5,0.4,0.6,0.6c0.2,0.3,0.2,0.6,0.2,0.9c0,0.3-0.1,0.6-0.2,0.9c-0.2,0.3-0.4,0.5-0.7,0.6    c-0.3,0.2-0.6,0.2-1,0.2h-1.2c0,0,0,0,0,0c0,0,0,0,0,0c0,0,0,0,0,0c0,0,0,0,0,0v2.1c0,0,0,0.1,0,0.1c0,0,0,0,0,0c0,0,0,0,0,0h-1    c0,0-0.1,0-0.1,0c0,0,0,0,0-0.1v-5.7c0,0,0,0,0,0c0,0,0,0,0,0c0,0,0,0,0,0c0,0,0,0,0,0h2.4C179.8,26.7,180.2,26.8,180.5,27z     M180,29.2c0.1-0.1,0.1-0.2,0.2-0.3c0-0.1,0.1-0.2,0.1-0.3c0-0.1,0-0.2-0.1-0.3S180,28.1,180,28c-0.2-0.2-0.4-0.2-0.6-0.2h-1.1    c0,0,0,0,0,0v1.5c0,0,0,0,0,0h1.1C179.6,29.4,179.8,29.3,180,29.2z"></path>
		<path class="st1" d="M185.6,32.5l-0.3-0.8c0,0,0,0,0,0c0,0,0,0,0,0h-2.1c0,0,0,0,0,0l-0.2,0.8c0,0,0,0,0,0.1c0,0,0,0-0.1,0h-1.1    c0,0,0,0,0,0c0,0,0,0,0,0c0,0,0,0,0,0c0,0,0,0,0,0l1.8-5.6c0,0,0,0,0-0.1c0,0,0,0,0.1,0h1.3c0,0,0.1,0,0.1,0c0,0,0,0,0,0.1    l1.8,5.6c0,0,0,0,0,0c0,0,0,0.1-0.1,0.1h-1.1C185.6,32.6,185.6,32.6,185.6,32.5C185.6,32.6,185.6,32.5,185.6,32.5z M183.5,30.8    h1.5c0,0,0,0,0,0l-0.8-2.5c0,0,0,0,0,0c0,0,0,0,0,0L183.5,30.8C183.5,30.7,183.5,30.8,183.5,30.8L183.5,30.8z"></path>
		<path class="st1" d="M191.3,26.8C191.3,26.8,191.3,26.8,191.3,26.8C191.3,26.8,191.3,26.8,191.3,26.8l1,0c0,0,0,0,0,0c0,0,0,0,0,0    c0,0,0,0,0,0c0,0,0,0,0,0v5.6c0,0,0,0.1,0,0.1c0,0,0,0,0,0c0,0,0,0,0,0h-0.9c0,0,0,0-0.1,0c0,0,0,0,0,0l-2.2-3.6c0,0,0,0,0,0    c0,0,0,0,0,0v3.5c0,0,0,0.1,0,0.1c0,0,0,0,0,0c0,0,0,0,0,0h-1c0,0-0.1,0-0.1,0c0,0,0,0,0-0.1v-5.7c0,0,0,0,0,0c0,0,0,0,0,0    c0,0,0,0,0,0c0,0,0,0,0,0h0.9c0,0,0,0,0.1,0c0,0,0,0,0,0.1l2.2,3.6c0,0,0,0,0,0c0,0,0,0,0,0L191.3,26.8    C191.2,26.8,191.3,26.8,191.3,26.8z"></path>
		<path class="st1" d="M195.3,32.6C195.3,32.6,195.3,32.5,195.3,32.6C195.3,32.5,195.3,32.5,195.3,32.6l0-2.2c0,0,0,0,0,0l-1.7-3.5    c0,0,0,0,0,0c0,0,0-0.1,0.1-0.1h1.1c0,0,0,0,0.1,0c0,0,0,0,0,0.1l1,2.2c0,0,0,0,0,0l1-2.2c0,0,0,0,0-0.1c0,0,0,0,0.1,0h1.1    c0,0,0,0,0,0c0,0,0,0,0,0c0,0,0,0,0,0.1l-1.7,3.5c0,0,0,0,0,0v2.1c0,0,0,0,0,0c0,0,0,0,0,0c0,0,0,0,0,0c0,0,0,0,0,0h-1    C195.4,32.6,195.4,32.6,195.3,32.6C195.3,32.6,195.3,32.6,195.3,32.6z"></path>
	</g>
</g>
</svg>
